# xmcd CD database file
#
# Track frame offsets:
#	150
#	12922
#	26445
#	40182
#	52607
#	64547
#	77150
#	89672
#	103012
#	116745
#	130567
#	144552
#	154165
#	165482
#	178145
#	191597
#	202352
#	214755
#	226247
#	237847
#	250240
#	264802
#	278507
#	290740
#	303942
#
# Disc length: 4233 seconds
#
# Revision: 0
# Processed by: cddbd v1.5PL3 Copyright (c) Steve Scherf et al.
# Submitted via: CDex 1.51
#
DISCID=57108719
DTITLE=Lightning Hopkins - The Complete GOLD STAR Sessions (Disk 2)
DYEAR=1990
DGENRE=Blues
TTITLE0=Lightning Boogie
TTITLE1=Unkind Blues
TTITLE2=Traveller's Blues (Trying To Find A Friend)
TTITLE3=Fast Life Woman
TTITLE4=European Blues
TTITLE5=Automobile Blues
TTITLE6=Zolo Go (Zydeco)
TTITLE7=Hammond Boogie (Organ Boogie)
TTITLE8=Automobile Blues
TTITLE9=Old Woman Blues
TTITLE10=Untrue Blues
TTITLE11=Henny Penny Blues
TTITLE12=Jazz Blues
TTITLE13=Jackstropper Blues
TTITLE14=Grievance Blues
TTITLE15=Grosebeck Blues (take 2)
TTITLE16=Grosebeck Blues (take 3)
TTITLE17=Grosebeck Blues (take 4)
TTITLE18=Racetrack Blues
TTITLE19=Good-Bye Blues
TTITLE20=Bluebird Blues
TTITLE21=Seems Funny Baby
TTITLE22=Coolin' Board Blues
TTITLE23=Goin' Back And Talk To Mama
TTITLE24=All I Got Is Gone
EXTD=YEAR: 1990
EXTT0=
EXTT1=
EXTT2=
EXTT3=
EXTT4=
EXTT5=
EXTT6=
EXTT7=
EXTT8=
EXTT9=
EXTT10=
EXTT11=
EXTT12=
EXTT13=
EXTT14=
EXTT15=
EXTT16=
EXTT17=
EXTT18=
EXTT19=
EXTT20=
EXTT21=
EXTT22=
EXTT23=
EXTT24=
PLAYORDER=
